<svg id="Layer_1" data-name="Layer 1" xmlns="http://www.w3.org/2000/svg" viewBox="0 0 309.84 48.72"><defs><style>.cls-1{fill:#fff;}</style></defs><title>Artboard 1</title><polyline class="cls-1" points="137.86 43.84 137.86 40.99 106.54 40.99 106.54 43.84"/><rect class="cls-1" x="144.93" y="37.66" width="9.17" height="9.17" transform="translate(73.66 -93.35) rotate(45)"/><polyline class="cls-1" points="193.21 43.84 193.21 40.99 161.89 40.99 161.89 43.84"/><path class="cls-1" d="M17.32,0l.27,5.32-.37,0a6.88,6.88,0,0,0-.69-2.24,4.81,4.81,0,0,0-1.4-1.56,4.7,4.7,0,0,0-1.79-.8A12.9,12.9,0,0,0,10.6.5H6.91v9.67h1A9.39,9.39,0,0,0,10.09,10a2.46,2.46,0,0,0,1.21-.69A2.94,2.94,0,0,0,12,8.18a9.67,9.67,0,0,0,.36-1.88l.37,0L12.63,15h-.37a8.84,8.84,0,0,0-.43-2,3.79,3.79,0,0,0-.78-1.29,2.85,2.85,0,0,0-1.26-.76,6.71,6.71,0,0,0-2-.24H6.91v3.69q0,2.21.11,3.21a5.3,5.3,0,0,0,.44,1.68A3.47,3.47,0,0,0,9.13,21a6.86,6.86,0,0,0,3,.54A9.25,9.25,0,0,0,15.32,21a4.83,4.83,0,0,0,2.13-1.52,5.94,5.94,0,0,0,.94-1.58,13.91,13.91,0,0,0,.67-2.34l.37,0L19.22,22H0v-.37a5.23,5.23,0,0,0,1.49-.26,2.71,2.71,0,0,0,1-.68,2.74,2.74,0,0,0,.69-1.31,11.78,11.78,0,0,0,.19-2.44V5.06A11.76,11.76,0,0,0,3.2,2.62a2.73,2.73,0,0,0-.69-1.31,2.57,2.57,0,0,0-1-.68A5.27,5.27,0,0,0,0,.37V0Z"/><path class="cls-1" d="M25.81,22v-.37a5.32,5.32,0,0,0,1.5-.26,2.67,2.67,0,0,0,1.71-2,12.23,12.23,0,0,0,.18-2.45l0-3.14a4.78,4.78,0,0,0-.27-1.5,10.39,10.39,0,0,0-1.26-2.38L23.51,3.64l-.74-1.13A5.25,5.25,0,0,0,21.16.84,2.87,2.87,0,0,0,20.35.5,6.3,6.3,0,0,0,19.22.37V0H29.73V.37A6.42,6.42,0,0,0,28,.61a1.4,1.4,0,0,0-.9,1.4,2.15,2.15,0,0,0,.2.84A8.83,8.83,0,0,0,28,4l4.37,6.83L36.08,5l.42-.66a3.41,3.41,0,0,0,.6-1.84,2,2,0,0,0-.66-1.6A2.77,2.77,0,0,0,34.58.37V0H42V.37A5.07,5.07,0,0,0,40.7.65a3.25,3.25,0,0,0-.92.6,17.29,17.29,0,0,0-2.43,3.08L33.68,9.94a6.85,6.85,0,0,0-.81,1.47A6,6,0,0,0,32.73,13v3.95a12.65,12.65,0,0,0,.17,2.47,2.64,2.64,0,0,0,.69,1.28,3.32,3.32,0,0,0,2.53.93V22Z"/><path class="cls-1" d="M59.55,0l.27,5.32-.37,0a6.88,6.88,0,0,0-.69-2.24,4.81,4.81,0,0,0-1.4-1.56,4.7,4.7,0,0,0-1.79-.8A12.9,12.9,0,0,0,52.84.5H49.15v9.67h1A9.39,9.39,0,0,0,52.32,10a2.46,2.46,0,0,0,1.21-.69,2.94,2.94,0,0,0,.67-1.1,9.67,9.67,0,0,0,.36-1.88l.37,0L54.87,15H54.5a8.84,8.84,0,0,0-.43-2,3.79,3.79,0,0,0-.78-1.29A2.85,2.85,0,0,0,52,10.91a6.71,6.71,0,0,0-2-.24h-.92v3.69q0,2.21.11,3.21a5.3,5.3,0,0,0,.44,1.68A3.47,3.47,0,0,0,51.36,21a6.86,6.86,0,0,0,3,.54A9.25,9.25,0,0,0,57.56,21a4.83,4.83,0,0,0,2.13-1.52,5.94,5.94,0,0,0,.94-1.58,13.91,13.91,0,0,0,.67-2.34l.37,0L61.46,22H42.23v-.37a5.23,5.23,0,0,0,1.49-.26,2.71,2.71,0,0,0,1.71-2,11.78,11.78,0,0,0,.19-2.44V5.06a11.76,11.76,0,0,0-.19-2.44,2.73,2.73,0,0,0-.69-1.31,2.57,2.57,0,0,0-1-.68A5.27,5.27,0,0,0,42.23.37V0Z"/><path class="cls-1" d="M61.46,0H71.59V.37a5.92,5.92,0,0,0-1.93.21,1.59,1.59,0,0,0-.71.63,1.81,1.81,0,0,0-.27,1,5.13,5.13,0,0,0,.52,1.87l.42,1,5,12.25,3.5-10.55a10.73,10.73,0,0,0,.68-3,4,4,0,0,0-.27-1.44,3.18,3.18,0,0,0-.7-1.14,2.4,2.4,0,0,0-1-.6A4.49,4.49,0,0,0,75.49.37V0H85.85V.37a10.34,10.34,0,0,0-1.38.06,2.31,2.31,0,0,0-.8.27,2.16,2.16,0,0,0-.78.83,2.38,2.38,0,0,0-.3,1.17,8,8,0,0,0,.45,2L87,17.5,91.44,6.62a11.12,11.12,0,0,0,1-3.87,2.21,2.21,0,0,0-1-2A3.44,3.44,0,0,0,89.77.37V0h7.46V.37a4.58,4.58,0,0,0-1.64.41,3.38,3.38,0,0,0-1.1,1.09,22.35,22.35,0,0,0-2,4.08L85.85,22h-.66L79.45,4.83,73.64,22h-.73L65.71,4.66l-.48-1.18a12.41,12.41,0,0,0-.84-1.72A2.78,2.78,0,0,0,62.73.55,8.19,8.19,0,0,0,61.46.37Z"/><path class="cls-1" d="M114.79,0l.27,5.32-.37,0A6.88,6.88,0,0,0,114,3.09a4.81,4.81,0,0,0-1.4-1.56,4.7,4.7,0,0,0-1.79-.8A12.9,12.9,0,0,0,108.07.5h-3.69v9.67h1a9.39,9.39,0,0,0,2.21-.19,2.46,2.46,0,0,0,1.21-.69,2.94,2.94,0,0,0,.67-1.1,9.67,9.67,0,0,0,.36-1.88l.37,0L110.1,15h-.37a8.84,8.84,0,0,0-.43-2,3.79,3.79,0,0,0-.78-1.29,2.85,2.85,0,0,0-1.26-.76,6.71,6.71,0,0,0-2-.24h-.92v3.69q0,2.21.11,3.21a5.3,5.3,0,0,0,.44,1.68A3.47,3.47,0,0,0,106.6,21a6.86,6.86,0,0,0,3,.54,9.25,9.25,0,0,0,3.24-.49,4.83,4.83,0,0,0,2.13-1.52,5.94,5.94,0,0,0,.94-1.58,13.91,13.91,0,0,0,.67-2.34l.37,0L116.69,22H97.47v-.37A5.23,5.23,0,0,0,99,21.37a2.71,2.71,0,0,0,1.71-2,11.78,11.78,0,0,0,.19-2.44V5.06a11.76,11.76,0,0,0-.19-2.44A2.73,2.73,0,0,0,100,1.31a2.57,2.57,0,0,0-1-.68A5.27,5.27,0,0,0,97.47.37V0Z"/><path class="cls-1" d="M140.46,22H129.87v-.37a4.86,4.86,0,0,0,2-.48,2,2,0,0,0,1-1.74,5.06,5.06,0,0,0-.45-1.77l-.27-.68-1.55-3.8h-7.09l-.84,2.22-.4,1a8,8,0,0,0-.73,2.79,2.39,2.39,0,0,0,.27,1.11,2.31,2.31,0,0,0,.72.84,3.25,3.25,0,0,0,1.61.52V22h-7.22v-.37a3.34,3.34,0,0,0,1.5-.42A4.31,4.31,0,0,0,119.67,20a9.14,9.14,0,0,0,1-1.7q.49-1,1.3-3.12L127.88,0h.92l7,16.94a26.74,26.74,0,0,0,1.26,2.74,4.06,4.06,0,0,0,1,1.24,2.85,2.85,0,0,0,.89.44,8.86,8.86,0,0,0,1.5.27Zm-10.12-9.51L127,4.14l-3.19,8.35Z"/><path class="cls-1" d="M147.82,11.23v5.7a11.7,11.7,0,0,0,.19,2.44,2.7,2.7,0,0,0,1.69,2,5.05,5.05,0,0,0,1.51.27V22h-10.3v-.37a5,5,0,0,0,1.51-.27,2.73,2.73,0,0,0,1-.67,2.61,2.61,0,0,0,.69-1.31,12.23,12.23,0,0,0,.18-2.45V5.06a12.23,12.23,0,0,0-.18-2.45,2.61,2.61,0,0,0-.69-1.31,2.56,2.56,0,0,0-1-.68,5.32,5.32,0,0,0-1.5-.26V0h7.77l2.56,0a12.45,12.45,0,0,1,3.92.68,5.32,5.32,0,0,1,2.47,1.93,5.13,5.13,0,0,1,.88,3,4.89,4.89,0,0,1-1.9,4,5.51,5.51,0,0,1-1.28.74,11.54,11.54,0,0,1-1.88.55,4.89,4.89,0,0,1,1.43.84,3.78,3.78,0,0,1,.68.85q.31.51.92,1.8,1.43,2.95,2.17,4.31a13.25,13.25,0,0,0,1.23,2,2.56,2.56,0,0,0,.78.69,3,3,0,0,0,1,.26V22h-5.35l-.52-1.13L154.7,18.3a41.05,41.05,0,0,0-2-4.08,8.36,8.36,0,0,0-1.89-2.4,2.82,2.82,0,0,0-.93-.46,4.72,4.72,0,0,0-1.22-.14Zm0-.35h.61a12.65,12.65,0,0,0,2.86-.23,3.77,3.77,0,0,0,1.62-.93,5.3,5.3,0,0,0,1.69-4,5.89,5.89,0,0,0-.49-2.39,4.94,4.94,0,0,0-1.36-1.85,3.93,3.93,0,0,0-1.61-.77A12.39,12.39,0,0,0,148.48.5h-.66Z"/><path class="cls-1" d="M198.35.37a5.25,5.25,0,0,0-1.47.25,2.79,2.79,0,0,0-1,.67,2.28,2.28,0,0,0-.53.75,3.56,3.56,0,0,0-.24,1,15.09,15.09,0,0,0-.11,2V16.94a11.48,11.48,0,0,0,.19,2.47,2.58,2.58,0,0,0,.69,1.29,3.74,3.74,0,0,0,2.5.93V22h-10.3v-.37a5,5,0,0,0,1.51-.27,2.88,2.88,0,0,0,1-.67,2.73,2.73,0,0,0,.68-1.31,11.73,11.73,0,0,0,.19-2.44V2.53L183.16,22h-.34L174.57,2.82V16.94a11.68,11.68,0,0,0,.19,2.45,2.71,2.71,0,0,0,1.71,2,5.22,5.22,0,0,0,1.49.26V22h-7.43v-.37a5.23,5.23,0,0,0,1.49-.26,2.71,2.71,0,0,0,1.71-2,11.78,11.78,0,0,0,.19-2.44V5.06q0-.74,0-1.4a4.59,4.59,0,0,0-.37-1.74A2.59,2.59,0,0,0,172.39.8a4.64,4.64,0,0,0-1.86-.43V0h7l7,17.23L191.73,0h6.62Z"/><path class="cls-1" d="M222.38,22H211.79v-.37a4.86,4.86,0,0,0,2-.48,2,2,0,0,0,1-1.74,5.06,5.06,0,0,0-.45-1.77l-.27-.68-1.55-3.8h-7.09l-.84,2.22-.4,1a8,8,0,0,0-.73,2.79,2.39,2.39,0,0,0,.27,1.11,2.31,2.31,0,0,0,.72.84,3.25,3.25,0,0,0,1.61.52V22h-7.22v-.37a3.34,3.34,0,0,0,1.5-.42A4.31,4.31,0,0,0,201.59,20a9.14,9.14,0,0,0,1-1.7q.49-1,1.3-3.12L209.79,0h.92l7,16.94A26.74,26.74,0,0,0,219,19.67a4.06,4.06,0,0,0,1,1.24,2.85,2.85,0,0,0,.89.44,8.86,8.86,0,0,0,1.5.27Zm-10.12-9.51-3.38-8.35-3.19,8.35Z"/><path class="cls-1" d="M229.74,11.23v5.7a11.7,11.7,0,0,0,.19,2.44,2.7,2.7,0,0,0,1.69,2,5.05,5.05,0,0,0,1.51.27V22h-10.3v-.37a5,5,0,0,0,1.51-.27,2.73,2.73,0,0,0,1-.67,2.61,2.61,0,0,0,.69-1.31,12.23,12.23,0,0,0,.18-2.45V5.06A12.23,12.23,0,0,0,226,2.61a2.61,2.61,0,0,0-.69-1.31,2.56,2.56,0,0,0-1-.68,5.32,5.32,0,0,0-1.5-.26V0h7.77l2.56,0a12.45,12.45,0,0,1,3.92.68,5.32,5.32,0,0,1,2.47,1.93,5.13,5.13,0,0,1,.88,3,4.89,4.89,0,0,1-1.9,4,5.51,5.51,0,0,1-1.28.74,11.54,11.54,0,0,1-1.88.55,4.89,4.89,0,0,1,1.43.84,3.78,3.78,0,0,1,.68.85q.31.51.92,1.8,1.43,2.95,2.17,4.31a13.25,13.25,0,0,0,1.23,2,2.56,2.56,0,0,0,.78.69,3,3,0,0,0,1,.26V22h-5.35l-.52-1.13-1.13-2.56a41.05,41.05,0,0,0-2-4.08,8.36,8.36,0,0,0-1.89-2.4,2.82,2.82,0,0,0-.93-.46,4.72,4.72,0,0,0-1.22-.14Zm0-.35h.61a12.65,12.65,0,0,0,2.86-.23,3.77,3.77,0,0,0,1.62-.93,5.3,5.3,0,0,0,1.69-4A5.89,5.89,0,0,0,236,3.33a4.94,4.94,0,0,0-1.36-1.85,3.93,3.93,0,0,0-1.61-.77A12.39,12.39,0,0,0,230.4.5h-.66Z"/><path class="cls-1" d="M251.11,10.78,257.93,4a12.72,12.72,0,0,0,1.27-1.36,1.38,1.38,0,0,0,.25-.8,1.28,1.28,0,0,0-.77-1.19,4.45,4.45,0,0,0-1.35-.29V0h6.94V.37a4.93,4.93,0,0,0-1.18.23,4.36,4.36,0,0,0-1,.57,24.68,24.68,0,0,0-2.16,1.92l-5.22,5,7.43,9.47.92,1.18a9.16,9.16,0,0,0,2.11,2,6,6,0,0,0,1.16.62,5.78,5.78,0,0,0,1.26.28V22H256.88v-.37a4.39,4.39,0,0,0,1.74-.4,1,1,0,0,0,.53-.9,3.24,3.24,0,0,0-.66-1.64q-.32-.48-1.21-1.68t-1.5-1.93l-3.63-4.5-1,1v5.33a11.7,11.7,0,0,0,.19,2.44,2.7,2.7,0,0,0,1.69,2,5.05,5.05,0,0,0,1.51.27V22H244.2v-.37a5,5,0,0,0,1.51-.27,2.73,2.73,0,0,0,1-.67,2.61,2.61,0,0,0,.69-1.31,12.23,12.23,0,0,0,.18-2.45V5.06a12.23,12.23,0,0,0-.18-2.45,2.61,2.61,0,0,0-.69-1.31,2.56,2.56,0,0,0-1-.68,5.32,5.32,0,0,0-1.5-.26V0h10.3V.37A5.22,5.22,0,0,0,253,.63a2.71,2.71,0,0,0-1.71,2,11.69,11.69,0,0,0-.19,2.44Z"/><path class="cls-1" d="M284.88,0l.27,5.32-.37,0a6.88,6.88,0,0,0-.69-2.24,4.81,4.81,0,0,0-1.4-1.56,4.7,4.7,0,0,0-1.79-.8A12.9,12.9,0,0,0,278.16.5h-3.69v9.67h1a9.39,9.39,0,0,0,2.21-.19,2.46,2.46,0,0,0,1.21-.69,2.94,2.94,0,0,0,.67-1.1,9.67,9.67,0,0,0,.36-1.88l.37,0L280.19,15h-.37a8.84,8.84,0,0,0-.43-2,3.79,3.79,0,0,0-.78-1.29,2.85,2.85,0,0,0-1.26-.76,6.71,6.71,0,0,0-2-.24h-.92v3.69q0,2.21.11,3.21a5.3,5.3,0,0,0,.44,1.68,3.47,3.47,0,0,0,1.67,1.7,6.86,6.86,0,0,0,3,.54,9.25,9.25,0,0,0,3.24-.49A4.83,4.83,0,0,0,285,19.48,5.94,5.94,0,0,0,286,17.9a13.91,13.91,0,0,0,.67-2.34l.37,0L286.78,22H267.56v-.37a5.23,5.23,0,0,0,1.49-.26,2.71,2.71,0,0,0,1.71-2,11.78,11.78,0,0,0,.19-2.44V5.06a11.76,11.76,0,0,0-.19-2.44,2.73,2.73,0,0,0-.69-1.31,2.57,2.57,0,0,0-1-.68,5.27,5.27,0,0,0-1.51-.26V0Z"/><path class="cls-1" d="M296.82.5q-1,0-2.18.06a12,12,0,0,0-3.7.63,4.32,4.32,0,0,0-2,1.72A8.93,8.93,0,0,0,287.83,6l-.37,0L287.75,0h21.8l.29,5.95-.37,0a7.77,7.77,0,0,0-1.36-3.39,5.13,5.13,0,0,0-2.7-1.65A20.47,20.47,0,0,0,300.34.5V16.94a11.74,11.74,0,0,0,.19,2.44,2.71,2.71,0,0,0,1.71,2,5.23,5.23,0,0,0,1.49.26V22h-10.3v-.37a5.28,5.28,0,0,0,1.51-.26,2.71,2.71,0,0,0,1.71-2,11.75,11.75,0,0,0,.19-2.45Z"/></svg>